<svg width="177" height="177" viewBox="0 0 177 177" fill="none" xmlns="http://www.w3.org/2000/svg">
<path d="M176.014 88.007C176.014 136.612 136.612 176.014 88.007 176.014C39.4021 176.014 0 136.612 0 88.007C0 39.4021 39.4021 0 88.007 0C136.612 0 176.014 39.4021 176.014 88.007Z" fill="black"/>
<path fill-rule="evenodd" clip-rule="evenodd" d="M88.007 169.352C132.933 169.352 169.352 132.933 169.352 88.007C169.352 43.0813 132.933 6.66184 88.007 6.66184C43.0813 6.66184 6.66184 43.0813 6.66184 88.007C6.66184 132.933 43.0813 169.352 88.007 169.352ZM88.007 176.014C136.612 176.014 176.014 136.612 176.014 88.007C176.014 39.4021 136.612 0 88.007 0C39.4021 0 0 39.4021 0 88.007C0 136.612 39.4021 176.014 88.007 176.014Z" fill="white"/>
<path fill-rule="evenodd" clip-rule="evenodd" d="M77.5914 55.3615C77.7229 54.8585 77.8518 54.3469 77.9821 53.8298C78.6545 51.1613 79.3637 48.3464 80.6627 45.8061C81.5103 44.1486 82.5225 42.821 83.7668 41.9091C84.974 41.0243 86.5305 40.4324 88.6774 40.4324C90.8189 40.4324 92.3446 41.0273 93.5116 41.9047C94.7177 42.8116 95.6893 44.1348 96.4925 45.794C97.7135 48.3164 98.3451 51.0863 98.9437 53.7115C99.0709 54.2693 99.1965 54.8205 99.3261 55.3615H77.5914ZM72.5767 55.3615L72.2475 55.2665C72.427 54.6429 72.6165 53.8882 72.8279 53.046C73.5231 50.2778 74.4558 46.5631 76.0516 43.4424C77.1338 41.3261 78.6097 39.2611 80.707 37.7239C82.8415 36.1596 85.4802 35.2458 88.6774 35.2458C91.8799 35.2459 94.5106 36.1696 96.6224 37.7574C98.695 39.3158 100.124 41.4046 101.154 43.5321C102.659 46.6405 103.501 50.3433 104.123 53.079C104.318 53.9349 104.491 54.6963 104.656 55.315L104.482 55.3615H116.278C119.982 55.3615 122.984 58.3635 122.984 62.0667V120.662C122.984 121.254 122.273 121.555 121.848 121.145L112.701 112.327C112.265 111.906 112.018 111.325 112.018 110.718V83.0375C112.018 74.7885 105.899 68.1014 98.3509 68.1014H78.762C71.2141 68.1014 65.0953 74.7885 65.0953 83.0375V103.45C65.0953 111.699 71.2141 118.386 78.762 118.386H103.623C104.202 118.386 104.758 118.611 105.174 119.012L116.084 129.53C116.518 129.949 116.222 130.683 115.618 130.683H74.0355C62.926 130.683 53.9199 121.677 53.9199 110.568V62.0667C53.9199 58.3635 56.9219 55.3615 60.6251 55.3615H72.5767Z" fill="white"/>
<path fill-rule="evenodd" clip-rule="evenodd" d="M72.6928 86.7466C72.6928 81.5101 76.9432 77.2651 82.1863 77.2651H95.1608C100.404 77.2651 104.654 81.5101 104.654 86.7466L104.654 91.1279H95.6491C95.0233 88.2644 92.4923 86.1219 89.4651 86.1219H87.882C84.3847 86.1219 81.5496 88.9815 81.5496 92.5089V93.9828C81.5496 97.5103 84.3847 100.37 87.882 100.37H89.4651C92.7581 100.37 95.4641 97.8345 95.7689 94.5936H104.654L104.654 99.7452C104.654 104.982 100.404 109.227 95.1608 109.227H82.1863C76.9432 109.227 72.6928 104.982 72.6928 99.7452V86.7466Z" fill="white"/>
</svg>
